HIERARCHY
ROOT Hips
{
	OFFSET 0.000000 0.000000 0.000000
	CHANNELS 6 Xposition Yposition Zposition Xrotation Yrotation Zrotation
	JOINT LeftUpLeg_virtual
	{
		OFFSET 0.000000 0.000000 0.000000
		CHANNELS 3 Xrotation Yrotation Zrotation
		JOINT LeftUpLeg
		{
			OFFSET 15.427100 -6.655098 0.678600
			CHANNELS 3 Xrotation Yrotation Zrotation
			JOINT LeftLeg
			{
				OFFSET 4.081073 -39.591068 13.024000
				CHANNELS 3 Xrotation Yrotation Zrotation
				JOINT LeftFoot
				{
					OFFSET -4.081074 -37.707932 -15.979700
					CHANNELS 3 Xrotation Yrotation Zrotation
					JOINT LeftToeBase
					{
						OFFSET 5.346399 -15.068900 20.645000
						CHANNELS 3 Xrotation Yrotation Zrotation
						JOINT LeftToe_End
						{
							OFFSET 2.754700 0.931300 11.300900
							CHANNELS 3 Xrotation Yrotation Zrotation
							End Site
							{
								OFFSET 0 0 0
							}
						}
					}
				}
			}
		}
	}
	JOINT RightUpLeg_virtual
	{
		OFFSET 0.000000 0.000000 0.000000
		CHANNELS 3 Xrotation Yrotation Zrotation
		JOINT RightUpLeg
		{
			OFFSET -15.569500 -6.655098 0.678600
			CHANNELS 3 Xrotation Yrotation Zrotation
			JOINT RightLeg
			{
				OFFSET -4.081825 -39.591045 13.023800
				CHANNELS 3 Xrotation Yrotation Zrotation
				JOINT RightFoot
				{
					OFFSET 4.081824 -37.707954 -15.979600
					CHANNELS 3 Xrotation Yrotation Zrotation
					JOINT RightToeBase
					{
						OFFSET -5.346400 -15.068900 20.645000
						CHANNELS 3 Xrotation Yrotation Zrotation
						JOINT RightToe_End
						{
							OFFSET -2.754700 0.931300 11.300900
							CHANNELS 3 Xrotation Yrotation Zrotation
							End Site
							{
								OFFSET 0 0 0
							}
						}
					}
				}
			}
		}
	}
	JOINT Spine_virtual
	{
		OFFSET 0.000000 0.000000 0.000000
		CHANNELS 3 Xrotation Yrotation Zrotation
		JOINT Spine
		{
			OFFSET -0.279200 12.230698 -2.892100
			CHANNELS 3 Xrotation Yrotation Zrotation
			JOINT Spine1
			{
				OFFSET -0.232667 10.192268 -1.242267
				CHANNELS 3 Xrotation Yrotation Zrotation
				JOINT Spine1_split
				{
					OFFSET -0.232667 10.192268 -1.242267
					CHANNELS 3 Xrotation Yrotation Zrotation
					JOINT Spine2
					{
						OFFSET -0.232667 10.192268 -1.242267
						CHANNELS 3 Xrotation Yrotation Zrotation
						JOINT Neck_virtual
						{
							OFFSET 0.000000 0.000000 0.000000
							CHANNELS 3 Xrotation Yrotation Zrotation
							JOINT Neck
							{
								OFFSET -0.418800 17.814194 8.416900
								CHANNELS 3 Xrotation Yrotation Zrotation
								JOINT Head
								{
									OFFSET 0.000000 7.031097 3.806800
									CHANNELS 3 Xrotation Yrotation Zrotation
									JOINT HeadTop_End
									{
										OFFSET 0.000000 24.646606 12.978600
										CHANNELS 3 Xrotation Yrotation Zrotation
										End Site
										{
											OFFSET 0 0 0
										}
									}
								}
							}
						}
						JOINT LeftShoulder_virtual
						{
							OFFSET 0.000000 0.000000 0.000000
							CHANNELS 3 Xrotation Yrotation Zrotation
							JOINT LeftShoulder
							{
								OFFSET 8.476499 7.247704 -3.868750
								CHANNELS 3 Xrotation Yrotation Zrotation
								JOINT LeftShoulder_split
								{
									OFFSET 8.476499 7.247704 -3.868750
									CHANNELS 3 Xrotation Yrotation Zrotation
									JOINT LeftArm
									{
										OFFSET 9.308998 -2.777710 0.208600
										CHANNELS 3 Xrotation Yrotation Zrotation
										JOINT LeftForeArm
										{
											OFFSET 29.972298 0.000000 0.000000
											CHANNELS 3 Xrotation Yrotation Zrotation
											JOINT LeftHand
											{
												OFFSET 26.026505 0.000000 0.000000
												CHANNELS 3 Xrotation Yrotation Zrotation
												End Site
												{
													OFFSET 0 0 0
												}
											}
										}
									}
								}
							}
						}
						JOINT RightShoulder_virtual
						{
							OFFSET 0.000000 0.000000 0.000000
							CHANNELS 3 Xrotation Yrotation Zrotation
							JOINT RightShoulder
							{
								OFFSET -7.570500 7.247704 -3.868750
								CHANNELS 3 Xrotation Yrotation Zrotation
								JOINT RightShoulder_split
								{
									OFFSET -7.570500 7.247704 -3.868750
									CHANNELS 3 Xrotation Yrotation Zrotation
									JOINT RightArm
									{
										OFFSET -9.308998 -2.777710 0.208500
										CHANNELS 3 Xrotation Yrotation Zrotation
										JOINT RightForeArm
										{
											OFFSET -29.972300 0.000000 0.000000
											CHANNELS 3 Xrotation Yrotation Zrotation
											JOINT RightHand
											{
												OFFSET -26.026505 0.000000 0.000000
												CHANNELS 3 Xrotation Yrotation Zrotation
												End Site
												{
													OFFSET 0 0 0
												}
											}
										}
									}
								}
							}
						}
					}
				}
			}
		}
	}
}
MOTION
Frames: 6
Frame Time: 0.03333333
2.823449 68.867500 -57.066856 0.000000 0.000000 0.000000 29.263242 -72.572884 26.924829 -41.171851 -1.974614 29.258877 69.414284 -2.696853 1.787551 -19.209084 18.245249 -26.036772 -6.549558 -4.426260 -2.321698 0.000000 0.000000 0.000000 31.928990 -72.457290 29.886821 -49.242710 2.002975 -14.333191 72.201383 11.469898 -4.948558 -34.667687 -5.859084 20.078620 3.337681 5.405935 -34.352553 0.000000 0.000000 0.000000 27.526152 -71.181841 24.365609 2.029154 17.395404 -0.714996 12.750064 13.516227 -6.798138 0.328958 -1.250222 0.212387 0.000000 0.000000 0.000000 14.332384 14.587945 -6.317448 -3.740350 3.189516 12.122149 -33.555241 -17.430699 -13.942541 0.000000 0.000000 0.000000 10.168442 13.674206 -6.461204 7.518018 -7.666743 9.554056 2.258382 3.276479 -3.365411 -95.142582 -26.183655 -66.400592 11.789112 -69.785709 4.248218 0.000000 0.000000 0.000000 11.311542 13.457564 -6.043743 7.855316 -6.061464 -10.599199 -12.072423 3.503352 -0.514737 -56.249292 4.381577 24.107940 -16.411013 37.015944 18.096933 0.000000 0.000000 0.000000 
4.186360 66.942673 -57.516243 0.000000 0.000000 0.000000 34.130185 -70.681448 31.961768 -47.777457 -3.551750 29.983728 71.267826 -4.264520 1.652396 -18.562798 17.736709 -26.565264 -4.949277 -4.405087 -2.614698 0.000000 0.000000 0.000000 34.233919 -70.564959 32.744600 -53.032362 3.864305 -15.224960 75.860678 11.295529 -4.203960 -34.864813 -6.477739 20.750169 2.731491 5.516591 -32.773724 0.000000 0.000000 0.000000 31.245879 -68.807462 28.434474 4.610723 16.659974 -0.924817 13.114469 13.027776 -6.802768 0.331841 -1.438939 0.169536 0.000000 0.000000 0.000000 14.318677 14.121928 -5.951429 -4.741833 3.063664 12.417594 -36.130949 -9.237754 -14.711961 0.000000 0.000000 0.000000 10.230894 13.184891 -6.667293 6.493475 -8.440913 7.675769 1.168216 4.127406 -3.796819 -79.030521 -17.986750 -60.597247 15.900586 -69.736921 7.357717 0.000000 0.000000 0.000000 11.605370 13.145457 -5.839174 7.284723 -7.189943 -6.733377 -13.437181 4.567161 -0.849272 -47.061861 0.331564 24.047100 -13.457717 35.161554 19.671177 0.000000 0.000000 0.000000 
5.133375 65.726509 -57.531784 0.000000 0.000000 0.000000 37.969991 -68.851237 36.296199 -53.175608 -4.309529 30.202164 71.490115 -5.707615 1.404925 -16.813486 16.777362 -25.863727 -4.851414 -4.459286 -3.203625 0.000000 0.000000 0.000000 35.715821 -68.616039 35.058979 -56.362164 6.338186 -16.607337 78.219169 11.497087 -3.580468 -33.979406 -6.725212 22.590489 1.866736 5.614453 -30.065704 0.000000 0.000000 0.000000 33.640413 -66.436601 31.392318 6.775008 15.823571 -0.928174 13.400322 12.492088 -6.679968 0.319717 -1.538216 0.103384 0.000000 0.000000 0.000000 14.387058 13.578168 -5.486109 -6.134078 2.773547 12.527232 -37.695309 -1.287496 -15.356492 0.000000 0.000000 0.000000 10.218394 12.695564 -6.772115 5.531561 -8.579166 6.117062 0.451515 4.504576 -3.616893 -62.596601 -8.613517 -57.929259 17.459651 -67.172766 8.669236 0.000000 0.000000 0.000000 11.929538 12.754776 -5.602806 6.942995 -7.656451 -3.277189 -14.148069 5.790661 -1.078623 -37.017020 -6.123260 25.985928 -10.403492 34.207295 20.693465 0.000000 0.000000 0.000000 
5.745285 65.024994 -57.512947 0.000000 0.000000 0.000000 39.776218 -67.096985 38.773618 -57.040727 -4.295922 30.132104 70.762392 -7.255813 1.066649 -14.515801 15.447815 -24.544990 -5.804673 -4.475355 -4.141519 0.000000 0.000000 0.000000 36.330695 -66.743161 36.524379 -58.362006 8.810445 -18.051703 79.340925 12.059154 -3.346553 -33.180499 -6.664321 25.432206 0.270915 5.898031 -26.714287 0.000000 0.000000 0.000000 34.366780 -64.375762 32.843702 8.330902 15.035051 -0.557971 13.622784 11.968586 -6.537029 0.268691 -1.514497 0.101681 0.000000 0.000000 0.000000 14.492270 13.001291 -5.087482 -7.779880 2.372206 12.379970 -38.215445 5.735140 -15.791613 0.000000 0.000000 0.000000 10.269024 12.201951 -6.896408 4.688480 -8.273056 4.803775 0.029431 4.355817 -3.002496 -46.656677 0.162837 -59.198752 17.612720 -63.447314 8.967892 0.000000 0.000000 0.000000 12.350545 12.336397 -5.429077 6.781973 -7.120826 -0.021133 -14.786234 6.753034 -1.171129 -26.096553 -13.543460 30.405014 -7.360535 33.391019 20.932254 0.000000 0.000000 0.000000 
5.882451 64.807518 -57.425865 0.000000 0.000000 0.000000 39.164930 -65.577575 39.004618 -58.914118 -3.621225 29.778320 69.056812 -8.942841 0.615048 -12.484303 13.978549 -23.027120 -7.314813 -4.362443 -5.145694 0.000000 0.000000 0.000000 35.932614 -64.825804 36.747111 -58.261712 10.608988 -19.545667 79.189118 12.702131 -3.457851 -33.047898 -6.579336 28.228900 -1.352588 6.247760 -23.132348 0.000000 0.000000 0.000000 33.442194 -62.601450 32.658102 9.244804 14.382333 0.183328 13.768414 11.449222 -6.446695 0.134399 -1.438369 0.132138 0.000000 0.000000 0.000000 14.597979 12.411633 -4.877818 -9.528328 2.014466 11.947022 -37.921576 11.201402 -15.979287 0.000000 0.000000 0.000000 10.463138 11.675957 -7.127323 3.941022 -7.813960 3.675213 -0.661862 4.106860 -2.442009 -32.376265 7.062052 -63.678557 17.494148 -59.673792 9.089201 0.000000 0.000000 0.000000 12.871332 11.903265 -5.352434 6.702283 -5.550181 2.971799 -15.300030 7.444151 -1.053714 -15.647596 -20.142078 36.551826 -4.642511 32.019865 20.414083 0.000000 0.000000 0.000000 
5.847820 65.189796 -57.402130 0.000000 0.000000 0.000000 36.410144 -64.169368 37.129110 -58.966895 -2.640330 28.914021 66.758952 -10.614122 0.247459 -10.831545 12.480955 -21.818051 -8.123650 -4.118680 -6.044694 0.000000 0.000000 0.000000 34.230299 -63.150044 35.443559 -56.266368 11.032064 -21.073417 77.749122 12.927308 -3.700660 -33.544883 -7.073813 30.155712 -2.061844 6.448590 -19.737601 0.000000 0.000000 0.000000 31.486428 -61.064883 31.327533 9.549519 13.867659 1.175872 13.816823 10.920840 -6.413097 0.010562 -1.378977 0.209010 0.000000 0.000000 0.000000 14.696250 11.827303 -4.831939 -11.224113 1.728646 11.201656 -37.134284 14.941500 -15.838404 0.000000 0.000000 0.000000 10.714274 11.115816 -7.382646 3.296726 -7.245563 2.726302 -1.493945 3.630047 -2.139753 -21.176752 11.614567 -69.538675 17.310778 -56.363554 9.131959 0.000000 0.000000 0.000000 13.347459 11.435161 -5.339465 6.586036 -3.349012 5.494343 -15.595788 7.487118 -1.079014 -7.768106 -24.998211 42.882967 -2.629953 29.875227 19.370965 0.000000 0.000000 0.000000 
